<svg width="512" height="256" viewBox="0 0 512 256" fill="none" xmlns="http://www.w3.org/2000/svg">
<path fill-rule="evenodd" clip-rule="evenodd" d="M221.169 128.32C243.049 115.16 250.489 86.68 237.729 64.32C225.049 42.16 197.209 34.32 175.089 46.52C174.809 20.76 154.049 0 128.489 0C102.929 0 81.889 21.08 81.889 47.08C59.609 34.12 31.129 41.84 18.249 64.32C5.48901 86.68 12.889 115.16 34.809 128.32C12.929 141.48 5.48901 169.96 18.249 192.32C31.129 214.84 59.609 222.56 81.889 209.56C82.209 235.28 102.969 256 128.489 256C154.009 256 174.449 235.56 175.089 210.08C197.209 222.28 225.089 214.48 237.769 192.28C250.529 169.92 243.129 141.44 221.209 128.28" fill="#F55B1D"/>
<path d="M128.329 196.679C165.995 196.679 196.529 166.145 196.529 128.479C196.529 90.8135 165.995 60.2793 128.329 60.2793C90.6631 60.2793 60.1289 90.8135 60.1289 128.479C60.1289 166.145 90.6631 196.679 128.329 196.679Z" fill="#FBFE67"/>
<path fill-rule="evenodd" clip-rule="evenodd" d="M111.969 128C116.369 128 119.969 119.04 119.969 108C119.969 96.96 116.369 88 111.969 88C107.569 88 103.969 96.96 103.969 108C103.969 119.04 107.569 128 111.969 128ZM143.969 88C139.569 88 135.969 96.96 135.969 108C135.969 119.04 139.569 128 143.969 128C148.369 128 151.969 119.04 151.969 108C151.969 96.96 148.369 88 143.969 88ZM86.8083 140.481C90.8083 159.881 108.088 174.001 127.968 174.001C147.848 174.001 165.168 159.921 169.128 140.481C169.328 139.401 168.648 138.361 167.568 138.121C166.488 137.921 165.448 138.601 165.208 139.681C161.608 157.281 145.968 170.041 127.968 170.041C109.968 170.041 94.3283 157.281 90.7283 139.681C90.5283 138.601 89.4483 137.921 88.3683 138.121C87.2883 138.321 86.6083 139.401 86.8083 140.481Z" fill="black"/>
<path d="M440 134C443.314 134 446 131.314 446 128C446 124.686 443.314 122 440 122V134ZM323.757 123.757C321.414 126.101 321.414 129.899 323.757 132.243L361.941 170.426C364.284 172.77 368.083 172.77 370.426 170.426C372.77 168.083 372.77 164.284 370.426 161.941L336.485 128L370.426 94.0589C372.77 91.7157 372.77 87.9167 370.426 85.5736C368.083 83.2304 364.284 83.2304 361.941 85.5736L323.757 123.757ZM440 122L328 122V134H440V122Z" fill="black"/>
</svg>
