<svg width="256" height="256" viewBox="0 0 256 256" fill="none" xmlns="http://www.w3.org/2000/svg">
<path fill-rule="evenodd" clip-rule="evenodd" d="M221.169 128.32C243.049 115.16 250.489 86.68 237.729 64.32C225.049 42.16 197.209 34.32 175.089 46.52C174.809 20.76 154.049 0 128.489 0C102.929 0 81.889 21.08 81.889 47.08C59.609 34.12 31.129 41.84 18.249 64.32C5.48901 86.68 12.889 115.16 34.809 128.32C12.929 141.48 5.48901 169.96 18.249 192.32C31.129 214.84 59.609 222.56 81.889 209.56C82.209 235.28 102.969 256 128.489 256C154.009 256 174.449 235.56 175.089 210.08C197.209 222.28 225.089 214.48 237.769 192.28C250.529 169.92 243.129 141.44 221.209 128.28" fill="#F55B1D"/>
<path d="M128.329 196.679C165.995 196.679 196.529 166.145 196.529 128.479C196.529 90.8135 165.995 60.2793 128.329 60.2793C90.6631 60.2793 60.1289 90.8135 60.1289 128.479C60.1289 166.145 90.6631 196.679 128.329 196.679Z" fill="#FBFE67"/>
<path d="M148 131C149.657 131 151 129.657 151 128C151 126.343 149.657 125 148 125V131ZM105.879 125.879C104.707 127.05 104.707 128.95 105.879 130.121L124.971 149.213C126.142 150.385 128.042 150.385 129.213 149.213C130.385 148.042 130.385 146.142 129.213 144.971L112.243 128L129.213 111.029C130.385 109.858 130.385 107.958 129.213 106.787C128.042 105.615 126.142 105.615 124.971 106.787L105.879 125.879ZM148 125H108V131H148V125Z" fill="black"/>
</svg>
