<svg width="128" height="128" viewBox="0 0 128 128" fill="none" xmlns="http://www.w3.org/2000/svg">
<path fill-rule="evenodd" clip-rule="evenodd" d="M110.585 64.16C121.525 57.58 125.245 43.34 118.865 32.16C112.525 21.08 98.6045 17.16 87.5445 23.26C87.4045 10.38 77.0245 0 64.2445 0C51.4645 0 40.9445 10.54 40.9445 23.54C29.8045 17.06 15.5645 20.92 9.1245 32.16C2.7445 43.34 6.4445 57.58 17.4045 64.16C6.4645 70.74 2.7445 84.98 9.1245 96.16C15.5645 107.42 29.8045 111.28 40.9445 104.78C41.1045 117.64 51.4845 128 64.2445 128C77.0045 128 87.2245 117.78 87.5445 105.04C98.6045 111.14 112.545 107.24 118.885 96.14C125.265 84.96 121.565 70.72 110.605 64.14" fill="#F55B1D"/>
<path d="M64.1645 98.3396C82.9974 98.3396 98.2645 83.0726 98.2645 64.2396C98.2645 45.4067 82.9974 30.1396 64.1645 30.1396C45.3315 30.1396 30.0645 45.4067 30.0645 64.2396C30.0645 83.0726 45.3315 98.3396 64.1645 98.3396Z" fill="#FBFE67"/>
<path fill-rule="evenodd" clip-rule="evenodd" d="M59.9844 54C59.9844 59.52 58.1844 64 55.9844 64C53.7844 64 51.9844 59.52 51.9844 54C51.9844 48.48 53.7844 44 55.9844 44C58.1844 44 59.9844 48.48 59.9844 54ZM67.9844 54C67.9844 48.48 69.7844 44 71.9844 44C74.1844 44 75.9844 48.48 75.9844 54C75.9844 59.52 74.1844 64 71.9844 64C69.7844 64 67.9844 59.52 67.9844 54Z" fill="black"/>
<path d="M83.5 70C83.5 76.25 74.7696 86 64 86C53.2304 86 44.5 76.25 44.5 70" stroke="black" stroke-width="2" stroke-linecap="round"/>
 <style>
    g { fill: #000; }
    @media (prefers-color-scheme: dark) {
      g { fill: #FFF; }
    }
  </style>
</svg>

