<svg width="256" height="256" viewBox="0 0 256 256" fill="none" xmlns="http://www.w3.org/2000/svg">
<path fill-rule="evenodd" clip-rule="evenodd" d="M221.169 128.32C243.049 115.16 250.489 86.68 237.729 64.32C225.049 42.16 197.209 34.32 175.089 46.52C174.809 20.76 154.049 0 128.489 0C102.929 0 81.889 21.08 81.889 47.08C59.609 34.12 31.129 41.84 18.249 64.32C5.48901 86.68 12.889 115.16 34.809 128.32C12.929 141.48 5.48901 169.96 18.249 192.32C31.129 214.84 59.609 222.56 81.889 209.56C82.209 235.28 102.969 256 128.489 256C154.009 256 174.449 235.56 175.089 210.08C197.209 222.28 225.089 214.48 237.769 192.28C250.529 169.92 243.129 141.44 221.209 128.28" fill="#F55B1D"/>
<path d="M128.329 196.679C165.995 196.679 196.529 166.145 196.529 128.479C196.529 90.8135 165.995 60.2793 128.329 60.2793C90.6631 60.2793 60.1289 90.8135 60.1289 128.479C60.1289 166.145 90.6631 196.679 128.329 196.679Z" fill="#FBFE67"/>
<path fill-rule="evenodd" clip-rule="evenodd" d="M119.969 108C119.969 119.04 116.369 128 111.969 128C107.569 128 103.969 119.04 103.969 108C103.969 96.96 107.569 88 111.969 88C116.369 88 119.969 96.96 119.969 108ZM135.969 108C135.969 96.96 139.569 88 143.969 88C148.369 88 151.969 96.96 151.969 108C151.969 119.04 148.369 128 143.969 128C139.569 128 135.969 119.04 135.969 108Z" fill="black"/>
<path d="M167 140C167 152.5 149.539 172 128 172C106.461 172 89 152.5 89 140" stroke="black" stroke-width="4" stroke-linecap="round"/>
</svg>
